# xmcd CD database file
#
# Track frame offsets:
#	150
#	19825
#	36785
#	50248
#	63208
#	75931
#	93930
#	111521
#	125844
#	138954
#	158514
#	173420
#	190028
#	205734
#
# Disc length: 2925 seconds
#
# Revision: 5
# Processed by: cddbd v1.5.1PL0 Copyright (c) Steve Scherf et al.
# Submitted via: CDex 1.51
#
DISCID=b00b6b0e
DTITLE=Kenny Rogers - Through The Years [CD2]
DYEAR=1900
DGENRE=Country
TTITLE0=Coward Of The County
TTITLE1=Desperado
TTITLE2=I Wish That I Could Hurt That Way Again
TTITLE3=You Are So Beautiful
TTITLE4=Why Don't We Go Somewhere And Love
TTITLE5=Scarelet Fever
TTITLE6=All My Life
TTITLE7=All I Ever Need Is You
TTITLE8=We Love Each Other
TTITLE9=Sweet Music Man
TTITLE10=Share Your Love With Me
TTITLE11=Crazy
TTITLE12=Love Love Love
TTITLE13=You Turn The Light On
EXTD=
EXTT0=
EXTT1=
EXTT2=
EXTT3=
EXTT4=Kenny Rogers and Dottie West
EXTT5=
EXTT6=
EXTT7=Kenny Rogers and Dottie West
EXTT8=Kenny Rogers and Dottie West\n
EXTT9=
EXTT10=
EXTT11=
EXTT12=
EXTT13=
PLAYORDER=
